<svg xmlns="http://www.w3.org/2000/svg" xmlns:xlink="http://www.w3.org/1999/xlink" width="208" height="171.323" viewBox="0 0 208 171.323">
  <defs>
    <filter id="Meias_Jamais" x="0" y="25.323" width="208" height="146" filterUnits="userSpaceOnUse">
      <feOffset dx="3" dy="3" input="SourceAlpha"/>
      <feGaussianBlur stdDeviation="2.5" result="blur"/>
      <feFlood flood-opacity="0.549"/>
      <feComposite operator="in" in2="blur"/>
      <feComposite in="SourceGraphic"/>
    </filter>
    <filter id="Caminho_90" x="162.615" y="0" width="39.149" height="32.112" filterUnits="userSpaceOnUse">
      <feOffset dx="-1" dy="3" input="SourceAlpha"/>
      <feGaussianBlur stdDeviation="2" result="blur-2"/>
      <feFlood flood-opacity="0.49"/>
      <feComposite operator="in" in2="blur-2"/>
      <feComposite in="SourceGraphic"/>
    </filter>
  </defs>
  <g id="Logo" transform="translate(-86.5 -69.177)">
    <g transform="matrix(1, 0, 0, 1, 86.5, 69.18)" filter="url(#Meias_Jamais)">
      <text id="Meias_Jamais-2" data-name="Meias?
Jamais" transform="translate(4.5 86.82)" fill="#fff" font-size="59" font-family="BwSurcoDEMO-Bold, Bw Surco DEMO" font-weight="700"><tspan x="0" y="0">Meias?</tspan><tspan x="0" y="60">Jamais</tspan></text>
    </g>
    <g id="Sock" transform="translate(265.693 136.733) rotate(-163)">
      <path id="Caminho_84" data-name="Caminho 84" d="M44.1,14.741C32.431,14.034,27.6,3.164,26.43,0c-.782.818-1.529,1.691-2.3,2.609q-.742.886-1.519,1.822c-.444.53-.9,1.07-1.393,1.615s-.994,1.11-1.539,1.681a42.891,42.891,0,0,1-9.694,7.56A22.547,22.547,0,0,0,4.458,18.43,12.3,12.3,0,0,0,.4,23.36c-1.146,2.952.535,4.729.5,9.588a82.638,82.638,0,0,1-.5,8.579H22.6a15.391,15.391,0,0,1,1.009-7.57c1.832-4.35,5.087-5.713,11.1-10.6.49-.4.959-.777,1.408-1.141.823-.661,1.58-1.277,2.281-1.852.469-.389.908-.752,1.322-1.11.777-.666,1.474-1.292,2.1-1.913A19.453,19.453,0,0,0,44.1,14.741Z" transform="translate(0.609 5.451)" fill="#f5f5f5"/>
      <path id="Caminho_85" data-name="Caminho 85" d="M.531,13.436c.025.42,4.674-.911,6.934-4.857A13.294,13.294,0,0,0,8.979,0L8.4.206,7.829.476l-.54.278-.464.256-.386.227-.431.269L5.43,1.9l-.5.369-.313.246L4.1,2.93l-.511.434-.426.381-.483.462-.476.5-.443.522L1.409,5.7,1.1,6.166.845,6.61.646,7l-.215.492-.107.285-.125.4-.122.548-.047.347L0,9.447l0,.363.024.441.017.181.034.28.06.358.02.139" transform="translate(0.61 21.241)" fill="#63b239"/>
      <path id="Caminho_87" data-name="Caminho 87" d="M17.875,3.579A10.554,10.554,0,0,0,9.3.046,12.6,12.6,0,0,0,4.237,2.018,19.2,19.2,0,0,0,0,5.451C1.166,8.615,6,19.485,17.673,20.192c.268-.373.518-.754.754-1.151,0,0,.243-.409.457-.827C19.126,17.742,22.914,9.184,17.875,3.579Z" transform="translate(27.039 0)" fill="#63b239"/>
      <g id="Grupo_283" data-name="Grupo 283" transform="translate(20.292 11.497)">
        <path id="Caminho_88" data-name="Caminho 88" d="M18.723,14.322C6.5,14.044,2.372,2.765,1.539,0,1.055.55.545,1.11,0,1.68,1.458,5.617,5.95,14.786,16.442,16.174,17.264,15.513,18.021,14.9,18.723,14.322Z" transform="translate(0)" fill="#63b239"/>
      </g>
      <g id="Grupo_284" data-name="Grupo 284" transform="translate(23.224 8.06)">
        <path id="Caminho_89" data-name="Caminho 89" d="M19.217,14.736C5.93,14.685,1.993,1.756,1.519,0Q.777.886,0,1.822C1.373,5.662,5.965,15.5,17.113,16.648,17.89,15.982,18.586,15.357,19.217,14.736Z" transform="translate(0)" fill="#63b239"/>
      </g>
      <g transform="matrix(-0.96, 0.29, -0.29, -0.96, 191.11, 12.21)" filter="url(#Caminho_90)">
        <path id="Caminho_90-2" data-name="Caminho 90" d="M1.3,13.626H22.926a1.308,1.308,0,0,0,1.3-1.319V1.319A1.308,1.308,0,0,0,22.926,0H1.3A1.308,1.308,0,0,0,0,1.319V12.307A1.308,1.308,0,0,0,1.3,13.626Z" transform="translate(192.78 23.11) rotate(-163)" fill="#f5f5f5"/>
      </g>
      <line id="Linha_2" data-name="Linha 2" x2="24" transform="translate(0 57.1)" fill="#63b239" stroke="#63b239" stroke-miterlimit="10" stroke-width="2"/>
      <line id="Linha_3" data-name="Linha 3" x2="24" transform="translate(0 49.1)" fill="#63b239" stroke="#63b239" stroke-miterlimit="10" stroke-width="2"/>
      <g id="Layer_5" data-name="Layer 5" transform="translate(0 51.3)">
        <rect id="Retângulo_163" data-name="Retângulo 163" width="24.223" height="4.037" transform="translate(0 0)" fill="#508c2d"/>
        <ellipse id="Elipse_11" data-name="Elipse 11" cx="1.5" cy="1" rx="1.5" ry="1" transform="translate(1 0.8)" fill="#f5f5f5"/>
        <ellipse id="Elipse_12" data-name="Elipse 12" cx="1.262" cy="1.262" rx="1.262" ry="1.262" transform="translate(5.93 0.757)" fill="#f5f5f5"/>
        <ellipse id="Elipse_13" data-name="Elipse 13" cx="1" cy="1" rx="1" ry="1" transform="translate(21 0.8)" fill="#f5f5f5"/>
        <ellipse id="Elipse_14" data-name="Elipse 14" cx="1.262" cy="1.262" rx="1.262" ry="1.262" transform="translate(15.77 0.757)" fill="#f5f5f5"/>
        <ellipse id="Elipse_15" data-name="Elipse 15" cx="1.262" cy="1.262" rx="1.262" ry="1.262" transform="translate(10.85 0.757)" fill="#f5f5f5"/>
      </g>
      <path id="Caminho_91" data-name="Caminho 91" d="M0,0" transform="translate(1.064 46.474)"/>
    </g>
  </g>
</svg>
